<mxfile host="app.diagrams.net" agent="Mozilla/5.0 (Windows NT 10.0; Win64; x64) AppleWebKit/537.36 (KHTML, like Gecko) Chrome/129.0.0.0 Safari/537.36" version="24.7.16">
  <diagram name="Page-1" id="nbv5a4ZadEdYSyP0BW78">
    <mxGraphModel dx="1843" dy="851" grid="1" gridSize="10" guides="1" tooltips="1" connect="1" arrows="1" fold="1" page="1" pageScale="1" pageWidth="850" pageHeight="1100" math="0" shadow="0">
      <root>
        <mxCell id="0" />
        <mxCell id="1" parent="0" />
        <mxCell id="kNnIyhSNZJ5QO92yVe2D-15" value="Hospital&lt;div&gt;&lt;br&gt;&lt;/div&gt;" style="swimlane;fontStyle=1;align=center;verticalAlign=top;childLayout=stackLayout;horizontal=1;startSize=26;horizontalStack=0;resizeParent=1;resizeParentMax=0;resizeLast=0;collapsible=1;marginBottom=0;whiteSpace=wrap;html=1;" parent="1" vertex="1">
          <mxGeometry x="50" y="252" width="240" height="208" as="geometry" />
        </mxCell>
        <mxCell id="kNnIyhSNZJ5QO92yVe2D-16" value="+ _medical_staff: MedicalStaff&lt;div&gt;+ _patient: Patient&lt;/div&gt;&lt;div&gt;+ _receptionist: Receptionist&lt;/div&gt;" style="text;strokeColor=none;fillColor=none;align=left;verticalAlign=top;spacingLeft=4;spacingRight=4;overflow=hidden;rotatable=0;points=[[0,0.5],[1,0.5]];portConstraint=eastwest;whiteSpace=wrap;html=1;" parent="kNnIyhSNZJ5QO92yVe2D-15" vertex="1">
          <mxGeometry y="26" width="240" height="64" as="geometry" />
        </mxCell>
        <mxCell id="kNnIyhSNZJ5QO92yVe2D-17" value="" style="line;strokeWidth=1;fillColor=none;align=left;verticalAlign=middle;spacingTop=-1;spacingLeft=3;spacingRight=3;rotatable=0;labelPosition=right;points=[];portConstraint=eastwest;strokeColor=inherit;" parent="kNnIyhSNZJ5QO92yVe2D-15" vertex="1">
          <mxGeometry y="90" width="240" height="8" as="geometry" />
        </mxCell>
        <mxCell id="kNnIyhSNZJ5QO92yVe2D-18" value="+ Hospital()&lt;div&gt;&lt;br&gt;&lt;/div&gt;&lt;div&gt;+ PatientList: List&amp;lt;Patient&amp;gt;&lt;/div&gt;&lt;div&gt;+ DoctorList: List&amp;lt;&lt;span style=&quot;background-color: initial;&quot;&gt;MedicalStaff&lt;/span&gt;&lt;span style=&quot;background-color: initial;&quot;&gt;&amp;gt;&lt;/span&gt;&lt;/div&gt;&lt;div&gt;+ NurseList: List&amp;lt;&lt;span style=&quot;background-color: initial;&quot;&gt;MedicalStaff&lt;/span&gt;&lt;span style=&quot;background-color: initial;&quot;&gt;&amp;gt;&lt;/span&gt;&lt;/div&gt;&lt;div&gt;+ ReceptionistList: List&amp;lt;Receptionist&amp;gt;&lt;/div&gt;&lt;div&gt;&lt;br&gt;&lt;/div&gt;" style="text;strokeColor=none;fillColor=none;align=left;verticalAlign=top;spacingLeft=4;spacingRight=4;overflow=hidden;rotatable=0;points=[[0,0.5],[1,0.5]];portConstraint=eastwest;whiteSpace=wrap;html=1;" parent="kNnIyhSNZJ5QO92yVe2D-15" vertex="1">
          <mxGeometry y="98" width="240" height="110" as="geometry" />
        </mxCell>
        <mxCell id="kNnIyhSNZJ5QO92yVe2D-19" value="Patient" style="swimlane;fontStyle=1;align=center;verticalAlign=top;childLayout=stackLayout;horizontal=1;startSize=26;horizontalStack=0;resizeParent=1;resizeParentMax=0;resizeLast=0;collapsible=1;marginBottom=0;whiteSpace=wrap;html=1;" parent="1" vertex="1">
          <mxGeometry x="700" y="470" width="160" height="160" as="geometry" />
        </mxCell>
        <mxCell id="kNnIyhSNZJ5QO92yVe2D-20" value="+ _symptoms: string" style="text;strokeColor=none;fillColor=none;align=left;verticalAlign=top;spacingLeft=4;spacingRight=4;overflow=hidden;rotatable=0;points=[[0,0.5],[1,0.5]];portConstraint=eastwest;whiteSpace=wrap;html=1;" parent="kNnIyhSNZJ5QO92yVe2D-19" vertex="1">
          <mxGeometry y="26" width="160" height="26" as="geometry" />
        </mxCell>
        <mxCell id="kNnIyhSNZJ5QO92yVe2D-21" value="" style="line;strokeWidth=1;fillColor=none;align=left;verticalAlign=middle;spacingTop=-1;spacingLeft=3;spacingRight=3;rotatable=0;labelPosition=right;points=[];portConstraint=eastwest;strokeColor=inherit;" parent="kNnIyhSNZJ5QO92yVe2D-19" vertex="1">
          <mxGeometry y="52" width="160" height="8" as="geometry" />
        </mxCell>
        <mxCell id="kNnIyhSNZJ5QO92yVe2D-22" value="+ Patient()&lt;div&gt;&lt;br&gt;&lt;/div&gt;&lt;div&gt;+ Name(): string&lt;/div&gt;&lt;div&gt;+ DOB(): string&lt;/div&gt;&lt;div&gt;+ Contact(): string&lt;/div&gt;&lt;div&gt;+ Symptoms(): string&lt;/div&gt;" style="text;strokeColor=none;fillColor=none;align=left;verticalAlign=top;spacingLeft=4;spacingRight=4;overflow=hidden;rotatable=0;points=[[0,0.5],[1,0.5]];portConstraint=eastwest;whiteSpace=wrap;html=1;" parent="kNnIyhSNZJ5QO92yVe2D-19" vertex="1">
          <mxGeometry y="60" width="160" height="100" as="geometry" />
        </mxCell>
        <mxCell id="kNnIyhSNZJ5QO92yVe2D-23" value="Neurologist" style="swimlane;fontStyle=1;align=center;verticalAlign=top;childLayout=stackLayout;horizontal=1;startSize=26;horizontalStack=0;resizeParent=1;resizeParentMax=0;resizeLast=0;collapsible=1;marginBottom=0;whiteSpace=wrap;html=1;" parent="1" vertex="1">
          <mxGeometry x="1270" y="610" width="220" height="200" as="geometry" />
        </mxCell>
        <mxCell id="kNnIyhSNZJ5QO92yVe2D-24" value="+ field: type" style="text;strokeColor=none;fillColor=none;align=left;verticalAlign=top;spacingLeft=4;spacingRight=4;overflow=hidden;rotatable=0;points=[[0,0.5],[1,0.5]];portConstraint=eastwest;whiteSpace=wrap;html=1;" parent="kNnIyhSNZJ5QO92yVe2D-23" vertex="1">
          <mxGeometry y="26" width="220" height="26" as="geometry" />
        </mxCell>
        <mxCell id="kNnIyhSNZJ5QO92yVe2D-25" value="" style="line;strokeWidth=1;fillColor=none;align=left;verticalAlign=middle;spacingTop=-1;spacingLeft=3;spacingRight=3;rotatable=0;labelPosition=right;points=[];portConstraint=eastwest;strokeColor=inherit;" parent="kNnIyhSNZJ5QO92yVe2D-23" vertex="1">
          <mxGeometry y="52" width="220" height="8" as="geometry" />
        </mxCell>
        <mxCell id="kNnIyhSNZJ5QO92yVe2D-26" value="+ Neurologist()&lt;div&gt;&lt;br&gt;&lt;div&gt;+ Name(): string&lt;/div&gt;&lt;div&gt;+ Contact(): string&lt;/div&gt;&lt;div&gt;&lt;div&gt;+ WorkingHours():&amp;nbsp;&lt;span style=&quot;background-color: initial;&quot;&gt;&amp;lt;&amp;lt;overriden&amp;gt;&amp;gt;&lt;/span&gt;&lt;/div&gt;&lt;div&gt;+ Experience(): string&amp;nbsp;&lt;span style=&quot;background-color: initial;&quot;&gt;&amp;lt;&amp;lt;overriden&amp;gt;&amp;gt;&lt;/span&gt;&lt;/div&gt;&lt;div&gt;+ Diagnose():&amp;nbsp;&lt;span style=&quot;background-color: initial;&quot;&gt;&amp;lt;&amp;lt;overriden&amp;gt;&amp;gt;&lt;/span&gt;&lt;/div&gt;&lt;div&gt;&lt;span style=&quot;background-color: initial;&quot;&gt;+ ProvideFeedback(): &amp;lt;&amp;lt;overriden&amp;gt;&amp;gt;&lt;/span&gt;&lt;/div&gt;&lt;/div&gt;&lt;/div&gt;" style="text;strokeColor=none;fillColor=none;align=left;verticalAlign=top;spacingLeft=4;spacingRight=4;overflow=hidden;rotatable=0;points=[[0,0.5],[1,0.5]];portConstraint=eastwest;whiteSpace=wrap;html=1;" parent="kNnIyhSNZJ5QO92yVe2D-23" vertex="1">
          <mxGeometry y="60" width="220" height="140" as="geometry" />
        </mxCell>
        <mxCell id="kNnIyhSNZJ5QO92yVe2D-27" value="Surgeon" style="swimlane;fontStyle=1;align=center;verticalAlign=top;childLayout=stackLayout;horizontal=1;startSize=26;horizontalStack=0;resizeParent=1;resizeParentMax=0;resizeLast=0;collapsible=1;marginBottom=0;whiteSpace=wrap;html=1;" parent="1" vertex="1">
          <mxGeometry x="1120" y="20" width="210" height="200" as="geometry" />
        </mxCell>
        <mxCell id="kNnIyhSNZJ5QO92yVe2D-28" value="&amp;nbsp;" style="text;strokeColor=none;fillColor=none;align=left;verticalAlign=top;spacingLeft=4;spacingRight=4;overflow=hidden;rotatable=0;points=[[0,0.5],[1,0.5]];portConstraint=eastwest;whiteSpace=wrap;html=1;" parent="kNnIyhSNZJ5QO92yVe2D-27" vertex="1">
          <mxGeometry y="26" width="210" height="26" as="geometry" />
        </mxCell>
        <mxCell id="kNnIyhSNZJ5QO92yVe2D-29" value="" style="line;strokeWidth=1;fillColor=none;align=left;verticalAlign=middle;spacingTop=-1;spacingLeft=3;spacingRight=3;rotatable=0;labelPosition=right;points=[];portConstraint=eastwest;strokeColor=inherit;" parent="kNnIyhSNZJ5QO92yVe2D-27" vertex="1">
          <mxGeometry y="52" width="210" height="8" as="geometry" />
        </mxCell>
        <mxCell id="kNnIyhSNZJ5QO92yVe2D-30" value="+ Surgeon()&lt;div&gt;&lt;br&gt;&lt;div&gt;+ Name(): string&lt;/div&gt;&lt;div&gt;+ Contact(): string&lt;/div&gt;&lt;div&gt;+ WorkingHours():&amp;nbsp;&lt;span style=&quot;background-color: initial;&quot;&gt;&amp;lt;&amp;lt;overriden&amp;gt;&amp;gt;&lt;/span&gt;&lt;/div&gt;&lt;div&gt;+ Experience(): string&amp;nbsp;&lt;span style=&quot;background-color: initial;&quot;&gt;&amp;lt;&amp;lt;overriden&amp;gt;&amp;gt;&lt;/span&gt;&lt;/div&gt;&lt;div&gt;+ Diagnose():&amp;nbsp;&lt;span style=&quot;background-color: initial;&quot;&gt;&amp;lt;&amp;lt;overriden&amp;gt;&amp;gt;&lt;/span&gt;&lt;/div&gt;&lt;div&gt;&lt;span style=&quot;background-color: initial;&quot;&gt;+ ProvideFeedback(): &amp;lt;&amp;lt;overriden&amp;gt;&amp;gt;&lt;/span&gt;&lt;br&gt;&lt;/div&gt;&lt;/div&gt;" style="text;strokeColor=none;fillColor=none;align=left;verticalAlign=top;spacingLeft=4;spacingRight=4;overflow=hidden;rotatable=0;points=[[0,0.5],[1,0.5]];portConstraint=eastwest;whiteSpace=wrap;html=1;" parent="kNnIyhSNZJ5QO92yVe2D-27" vertex="1">
          <mxGeometry y="60" width="210" height="140" as="geometry" />
        </mxCell>
        <mxCell id="kNnIyhSNZJ5QO92yVe2D-31" value="Surgical Nurse" style="swimlane;fontStyle=1;align=center;verticalAlign=top;childLayout=stackLayout;horizontal=1;startSize=26;horizontalStack=0;resizeParent=1;resizeParentMax=0;resizeLast=0;collapsible=1;marginBottom=0;whiteSpace=wrap;html=1;" parent="1" vertex="1">
          <mxGeometry x="700" y="920" width="160" height="200" as="geometry" />
        </mxCell>
        <mxCell id="kNnIyhSNZJ5QO92yVe2D-32" value="&amp;nbsp;" style="text;strokeColor=none;fillColor=none;align=left;verticalAlign=top;spacingLeft=4;spacingRight=4;overflow=hidden;rotatable=0;points=[[0,0.5],[1,0.5]];portConstraint=eastwest;whiteSpace=wrap;html=1;" parent="kNnIyhSNZJ5QO92yVe2D-31" vertex="1">
          <mxGeometry y="26" width="160" height="26" as="geometry" />
        </mxCell>
        <mxCell id="kNnIyhSNZJ5QO92yVe2D-33" value="" style="line;strokeWidth=1;fillColor=none;align=left;verticalAlign=middle;spacingTop=-1;spacingLeft=3;spacingRight=3;rotatable=0;labelPosition=right;points=[];portConstraint=eastwest;strokeColor=inherit;" parent="kNnIyhSNZJ5QO92yVe2D-31" vertex="1">
          <mxGeometry y="52" width="160" height="8" as="geometry" />
        </mxCell>
        <mxCell id="kNnIyhSNZJ5QO92yVe2D-34" value="+ PediatricNurse()&lt;div&gt;&lt;br&gt;&lt;/div&gt;&lt;div&gt;+ Name(): string&lt;/div&gt;&lt;div&gt;+ Contact(): string&lt;/div&gt;&lt;div&gt;+ WorkingHours(): string&lt;/div&gt;&lt;div&gt;+ Experience(): string&lt;/div&gt;&lt;div&gt;&lt;br&gt;&lt;/div&gt;&lt;div&gt;&lt;span style=&quot;background-color: initial;&quot;&gt;+ UpdatePatientRecord() &amp;lt;&amp;lt;property&amp;gt;&amp;gt;&lt;/span&gt;&lt;/div&gt;" style="text;strokeColor=none;fillColor=none;align=left;verticalAlign=top;spacingLeft=4;spacingRight=4;overflow=hidden;rotatable=0;points=[[0,0.5],[1,0.5]];portConstraint=eastwest;whiteSpace=wrap;html=1;" parent="kNnIyhSNZJ5QO92yVe2D-31" vertex="1">
          <mxGeometry y="60" width="160" height="140" as="geometry" />
        </mxCell>
        <mxCell id="kNnIyhSNZJ5QO92yVe2D-35" value="Pediatric Nurse" style="swimlane;fontStyle=1;align=center;verticalAlign=top;childLayout=stackLayout;horizontal=1;startSize=26;horizontalStack=0;resizeParent=1;resizeParentMax=0;resizeLast=0;collapsible=1;marginBottom=0;whiteSpace=wrap;html=1;" parent="1" vertex="1">
          <mxGeometry x="910" y="920" width="160" height="200" as="geometry" />
        </mxCell>
        <mxCell id="kNnIyhSNZJ5QO92yVe2D-36" value="&amp;nbsp;" style="text;strokeColor=none;fillColor=none;align=left;verticalAlign=top;spacingLeft=4;spacingRight=4;overflow=hidden;rotatable=0;points=[[0,0.5],[1,0.5]];portConstraint=eastwest;whiteSpace=wrap;html=1;" parent="kNnIyhSNZJ5QO92yVe2D-35" vertex="1">
          <mxGeometry y="26" width="160" height="26" as="geometry" />
        </mxCell>
        <mxCell id="kNnIyhSNZJ5QO92yVe2D-37" value="" style="line;strokeWidth=1;fillColor=none;align=left;verticalAlign=middle;spacingTop=-1;spacingLeft=3;spacingRight=3;rotatable=0;labelPosition=right;points=[];portConstraint=eastwest;strokeColor=inherit;" parent="kNnIyhSNZJ5QO92yVe2D-35" vertex="1">
          <mxGeometry y="52" width="160" height="8" as="geometry" />
        </mxCell>
        <mxCell id="kNnIyhSNZJ5QO92yVe2D-38" value="+ PediatricNurse()&lt;div&gt;&lt;br&gt;&lt;/div&gt;&lt;div&gt;+ Name(): string&lt;/div&gt;&lt;div&gt;+ Contact(): string&lt;/div&gt;&lt;div&gt;+ WorkingHours():&amp;nbsp;&lt;span style=&quot;background-color: initial;&quot;&gt;string&lt;/span&gt;&lt;/div&gt;&lt;div&gt;+ Experience(): string&lt;/div&gt;&lt;div&gt;&lt;br&gt;&lt;/div&gt;&lt;div&gt;+ UpdatePatientRecord()&lt;/div&gt;&lt;div&gt;&amp;lt;&amp;lt;property&amp;gt;&amp;gt;&lt;br&gt;&lt;/div&gt;" style="text;strokeColor=none;fillColor=none;align=left;verticalAlign=top;spacingLeft=4;spacingRight=4;overflow=hidden;rotatable=0;points=[[0,0.5],[1,0.5]];portConstraint=eastwest;whiteSpace=wrap;html=1;" parent="kNnIyhSNZJ5QO92yVe2D-35" vertex="1">
          <mxGeometry y="60" width="160" height="140" as="geometry" />
        </mxCell>
        <mxCell id="kNnIyhSNZJ5QO92yVe2D-43" value="Cardiologist" style="swimlane;fontStyle=1;align=center;verticalAlign=top;childLayout=stackLayout;horizontal=1;startSize=26;horizontalStack=0;resizeParent=1;resizeParentMax=0;resizeLast=0;collapsible=1;marginBottom=0;whiteSpace=wrap;html=1;" parent="1" vertex="1">
          <mxGeometry x="1350" y="380" width="210" height="200" as="geometry" />
        </mxCell>
        <mxCell id="kNnIyhSNZJ5QO92yVe2D-44" value="&amp;nbsp;" style="text;strokeColor=none;fillColor=none;align=left;verticalAlign=top;spacingLeft=4;spacingRight=4;overflow=hidden;rotatable=0;points=[[0,0.5],[1,0.5]];portConstraint=eastwest;whiteSpace=wrap;html=1;" parent="kNnIyhSNZJ5QO92yVe2D-43" vertex="1">
          <mxGeometry y="26" width="210" height="26" as="geometry" />
        </mxCell>
        <mxCell id="kNnIyhSNZJ5QO92yVe2D-45" value="" style="line;strokeWidth=1;fillColor=none;align=left;verticalAlign=middle;spacingTop=-1;spacingLeft=3;spacingRight=3;rotatable=0;labelPosition=right;points=[];portConstraint=eastwest;strokeColor=inherit;" parent="kNnIyhSNZJ5QO92yVe2D-43" vertex="1">
          <mxGeometry y="52" width="210" height="8" as="geometry" />
        </mxCell>
        <mxCell id="kNnIyhSNZJ5QO92yVe2D-46" value="+ Cardiologist()&lt;div&gt;&lt;br&gt;&lt;div&gt;+ Name(): string&lt;/div&gt;&lt;div&gt;+ Contact(): string&lt;/div&gt;&lt;div&gt;+ WorkingHours():&amp;nbsp;&lt;span style=&quot;background-color: initial;&quot;&gt;&amp;lt;&amp;lt;overriden&amp;gt;&amp;gt;&lt;/span&gt;&lt;/div&gt;&lt;div&gt;+ Experience(): string&amp;nbsp;&lt;span style=&quot;background-color: initial;&quot;&gt;&amp;lt;&amp;lt;overriden&amp;gt;&amp;gt;&lt;/span&gt;&lt;/div&gt;&lt;div&gt;+ Diagnose():&amp;nbsp;&lt;span style=&quot;background-color: initial;&quot;&gt;&amp;lt;&amp;lt;overriden&amp;gt;&amp;gt;&lt;/span&gt;&lt;/div&gt;&lt;div&gt;&lt;span style=&quot;background-color: initial;&quot;&gt;+ ProvideFeedback(): &amp;lt;&amp;lt;overriden&amp;gt;&amp;gt;&lt;/span&gt;&lt;/div&gt;&lt;/div&gt;" style="text;strokeColor=none;fillColor=none;align=left;verticalAlign=top;spacingLeft=4;spacingRight=4;overflow=hidden;rotatable=0;points=[[0,0.5],[1,0.5]];portConstraint=eastwest;whiteSpace=wrap;html=1;" parent="kNnIyhSNZJ5QO92yVe2D-43" vertex="1">
          <mxGeometry y="60" width="210" height="140" as="geometry" />
        </mxCell>
        <mxCell id="kNnIyhSNZJ5QO92yVe2D-47" value="Receptionist" style="swimlane;fontStyle=1;align=center;verticalAlign=top;childLayout=stackLayout;horizontal=1;startSize=26;horizontalStack=0;resizeParent=1;resizeParentMax=0;resizeLast=0;collapsible=1;marginBottom=0;whiteSpace=wrap;html=1;" parent="1" vertex="1">
          <mxGeometry x="880" y="10" width="160" height="210" as="geometry" />
        </mxCell>
        <mxCell id="kNnIyhSNZJ5QO92yVe2D-48" value="&amp;nbsp;" style="text;strokeColor=none;fillColor=none;align=left;verticalAlign=top;spacingLeft=4;spacingRight=4;overflow=hidden;rotatable=0;points=[[0,0.5],[1,0.5]];portConstraint=eastwest;whiteSpace=wrap;html=1;" parent="kNnIyhSNZJ5QO92yVe2D-47" vertex="1">
          <mxGeometry y="26" width="160" height="26" as="geometry" />
        </mxCell>
        <mxCell id="kNnIyhSNZJ5QO92yVe2D-49" value="" style="line;strokeWidth=1;fillColor=none;align=left;verticalAlign=middle;spacingTop=-1;spacingLeft=3;spacingRight=3;rotatable=0;labelPosition=right;points=[];portConstraint=eastwest;strokeColor=inherit;" parent="kNnIyhSNZJ5QO92yVe2D-47" vertex="1">
          <mxGeometry y="52" width="160" height="8" as="geometry" />
        </mxCell>
        <mxCell id="kNnIyhSNZJ5QO92yVe2D-50" value="+ Receptionist()&lt;div&gt;&lt;br&gt;&lt;/div&gt;&lt;div&gt;+ Name(): string&lt;/div&gt;&lt;div&gt;+ Contact(): string&lt;/div&gt;&lt;div&gt;&lt;span style=&quot;background-color: initial;&quot;&gt;+ AddPatientRecord()&lt;/span&gt;&lt;br&gt;&lt;/div&gt;&lt;div&gt;+ RemovePatientRecord()&lt;/div&gt;" style="text;strokeColor=none;fillColor=none;align=left;verticalAlign=top;spacingLeft=4;spacingRight=4;overflow=hidden;rotatable=0;points=[[0,0.5],[1,0.5]];portConstraint=eastwest;whiteSpace=wrap;html=1;" parent="kNnIyhSNZJ5QO92yVe2D-47" vertex="1">
          <mxGeometry y="60" width="160" height="150" as="geometry" />
        </mxCell>
        <mxCell id="kNnIyhSNZJ5QO92yVe2D-51" value="Pediatric" style="swimlane;fontStyle=1;align=center;verticalAlign=top;childLayout=stackLayout;horizontal=1;startSize=26;horizontalStack=0;resizeParent=1;resizeParentMax=0;resizeLast=0;collapsible=1;marginBottom=0;whiteSpace=wrap;html=1;" parent="1" vertex="1">
          <mxGeometry x="1350" y="150" width="210" height="200" as="geometry" />
        </mxCell>
        <mxCell id="kNnIyhSNZJ5QO92yVe2D-52" value="&amp;nbsp;" style="text;strokeColor=none;fillColor=none;align=left;verticalAlign=top;spacingLeft=4;spacingRight=4;overflow=hidden;rotatable=0;points=[[0,0.5],[1,0.5]];portConstraint=eastwest;whiteSpace=wrap;html=1;" parent="kNnIyhSNZJ5QO92yVe2D-51" vertex="1">
          <mxGeometry y="26" width="210" height="26" as="geometry" />
        </mxCell>
        <mxCell id="kNnIyhSNZJ5QO92yVe2D-53" value="" style="line;strokeWidth=1;fillColor=none;align=left;verticalAlign=middle;spacingTop=-1;spacingLeft=3;spacingRight=3;rotatable=0;labelPosition=right;points=[];portConstraint=eastwest;strokeColor=inherit;" parent="kNnIyhSNZJ5QO92yVe2D-51" vertex="1">
          <mxGeometry y="52" width="210" height="8" as="geometry" />
        </mxCell>
        <mxCell id="kNnIyhSNZJ5QO92yVe2D-54" value="+ Pediatric()&lt;div&gt;&lt;br&gt;&lt;div&gt;+ Name(): string&lt;/div&gt;&lt;div&gt;+ Contact(): string&lt;/div&gt;&lt;div&gt;&lt;div&gt;+ WorkingHours():&amp;nbsp;&lt;span style=&quot;background-color: initial;&quot;&gt;&amp;lt;&amp;lt;overriden&amp;gt;&amp;gt;&lt;/span&gt;&lt;/div&gt;&lt;div&gt;+ Experience(): string&amp;nbsp;&lt;span style=&quot;background-color: initial;&quot;&gt;&amp;lt;&amp;lt;overriden&amp;gt;&amp;gt;&lt;/span&gt;&lt;/div&gt;&lt;div&gt;+ Diagnose():&amp;nbsp;&lt;span style=&quot;background-color: initial;&quot;&gt;&amp;lt;&amp;lt;overriden&amp;gt;&amp;gt;&lt;/span&gt;&lt;/div&gt;&lt;div&gt;&lt;span style=&quot;background-color: initial;&quot;&gt;+ ProvideFeedback(): &amp;lt;&amp;lt;overriden&amp;gt;&amp;gt;&lt;/span&gt;&lt;/div&gt;&lt;/div&gt;&lt;/div&gt;" style="text;strokeColor=none;fillColor=none;align=left;verticalAlign=top;spacingLeft=4;spacingRight=4;overflow=hidden;rotatable=0;points=[[0,0.5],[1,0.5]];portConstraint=eastwest;whiteSpace=wrap;html=1;" parent="kNnIyhSNZJ5QO92yVe2D-51" vertex="1">
          <mxGeometry y="60" width="210" height="140" as="geometry" />
        </mxCell>
        <mxCell id="kNnIyhSNZJ5QO92yVe2D-55" value="Patient Records" style="swimlane;fontStyle=1;align=center;verticalAlign=top;childLayout=stackLayout;horizontal=1;startSize=26;horizontalStack=0;resizeParent=1;resizeParentMax=0;resizeLast=0;collapsible=1;marginBottom=0;whiteSpace=wrap;html=1;" parent="1" vertex="1">
          <mxGeometry x="530" width="160" height="180" as="geometry" />
        </mxCell>
        <mxCell id="kNnIyhSNZJ5QO92yVe2D-56" value="+ _issue_date: DateTime&lt;div&gt;+ _is_valid: bool&lt;/div&gt;" style="text;strokeColor=none;fillColor=none;align=left;verticalAlign=top;spacingLeft=4;spacingRight=4;overflow=hidden;rotatable=0;points=[[0,0.5],[1,0.5]];portConstraint=eastwest;whiteSpace=wrap;html=1;" parent="kNnIyhSNZJ5QO92yVe2D-55" vertex="1">
          <mxGeometry y="26" width="160" height="64" as="geometry" />
        </mxCell>
        <mxCell id="kNnIyhSNZJ5QO92yVe2D-57" value="" style="line;strokeWidth=1;fillColor=none;align=left;verticalAlign=middle;spacingTop=-1;spacingLeft=3;spacingRight=3;rotatable=0;labelPosition=right;points=[];portConstraint=eastwest;strokeColor=inherit;" parent="kNnIyhSNZJ5QO92yVe2D-55" vertex="1">
          <mxGeometry y="90" width="160" height="8" as="geometry" />
        </mxCell>
        <mxCell id="kNnIyhSNZJ5QO92yVe2D-58" value="+ PatientRecords()&lt;div&gt;&lt;br&gt;&lt;div&gt;+ IssueDate(): string&lt;/div&gt;&lt;div&gt;+ IsValid():&lt;/div&gt;&lt;div&gt;+ Description(): string&lt;/div&gt;&lt;/div&gt;" style="text;strokeColor=none;fillColor=none;align=left;verticalAlign=top;spacingLeft=4;spacingRight=4;overflow=hidden;rotatable=0;points=[[0,0.5],[1,0.5]];portConstraint=eastwest;whiteSpace=wrap;html=1;" parent="kNnIyhSNZJ5QO92yVe2D-55" vertex="1">
          <mxGeometry y="98" width="160" height="82" as="geometry" />
        </mxCell>
        <mxCell id="kNnIyhSNZJ5QO92yVe2D-59" value="Emergency Nurse" style="swimlane;fontStyle=1;align=center;verticalAlign=top;childLayout=stackLayout;horizontal=1;startSize=26;horizontalStack=0;resizeParent=1;resizeParentMax=0;resizeLast=0;collapsible=1;marginBottom=0;whiteSpace=wrap;html=1;" parent="1" vertex="1">
          <mxGeometry x="1130" y="920" width="160" height="200" as="geometry" />
        </mxCell>
        <mxCell id="kNnIyhSNZJ5QO92yVe2D-60" value="&amp;nbsp;" style="text;strokeColor=none;fillColor=none;align=left;verticalAlign=top;spacingLeft=4;spacingRight=4;overflow=hidden;rotatable=0;points=[[0,0.5],[1,0.5]];portConstraint=eastwest;whiteSpace=wrap;html=1;" parent="kNnIyhSNZJ5QO92yVe2D-59" vertex="1">
          <mxGeometry y="26" width="160" height="26" as="geometry" />
        </mxCell>
        <mxCell id="kNnIyhSNZJ5QO92yVe2D-61" value="" style="line;strokeWidth=1;fillColor=none;align=left;verticalAlign=middle;spacingTop=-1;spacingLeft=3;spacingRight=3;rotatable=0;labelPosition=right;points=[];portConstraint=eastwest;strokeColor=inherit;" parent="kNnIyhSNZJ5QO92yVe2D-59" vertex="1">
          <mxGeometry y="52" width="160" height="8" as="geometry" />
        </mxCell>
        <mxCell id="kNnIyhSNZJ5QO92yVe2D-62" value="+ EmergencyNurse()&lt;div&gt;&lt;br&gt;&lt;/div&gt;&lt;div&gt;+ Name(): string&lt;/div&gt;&lt;div&gt;+ Contact(): string&lt;/div&gt;&lt;div&gt;+ WorkingHours():&amp;nbsp;&lt;span style=&quot;background-color: initial;&quot;&gt;string&lt;/span&gt;&lt;/div&gt;&lt;div&gt;+ Experience(): string&lt;/div&gt;&lt;div&gt;&lt;br&gt;&lt;/div&gt;&lt;div&gt;+ UpdatePatientRecord()&lt;/div&gt;&lt;div&gt;&amp;lt;&amp;lt;property&amp;gt;&amp;gt;&lt;br&gt;&lt;/div&gt;" style="text;strokeColor=none;fillColor=none;align=left;verticalAlign=top;spacingLeft=4;spacingRight=4;overflow=hidden;rotatable=0;points=[[0,0.5],[1,0.5]];portConstraint=eastwest;whiteSpace=wrap;html=1;" parent="kNnIyhSNZJ5QO92yVe2D-59" vertex="1">
          <mxGeometry y="60" width="160" height="140" as="geometry" />
        </mxCell>
        <mxCell id="kNnIyhSNZJ5QO92yVe2D-70" value="" style="endArrow=block;endSize=16;endFill=0;html=1;rounded=0;entryX=0;entryY=0.75;entryDx=0;entryDy=0;exitX=0.5;exitY=0;exitDx=0;exitDy=0;" parent="1" source="kNnIyhSNZJ5QO92yVe2D-31" target="kNnIyhSNZJ5QO92yVe2D-76" edge="1">
          <mxGeometry x="-0.1429" y="-50" width="160" relative="1" as="geometry">
            <mxPoint x="699.41" y="893" as="sourcePoint" />
            <mxPoint x="830" y="780" as="targetPoint" />
            <mxPoint y="-1" as="offset" />
          </mxGeometry>
        </mxCell>
        <mxCell id="kNnIyhSNZJ5QO92yVe2D-71" value="" style="endArrow=block;endSize=16;endFill=0;html=1;rounded=0;entryX=0.5;entryY=1;entryDx=0;entryDy=0;exitX=0.5;exitY=0;exitDx=0;exitDy=0;" parent="1" source="kNnIyhSNZJ5QO92yVe2D-35" target="kNnIyhSNZJ5QO92yVe2D-76" edge="1">
          <mxGeometry width="160" relative="1" as="geometry">
            <mxPoint x="910" y="900" as="sourcePoint" />
            <mxPoint x="915" y="814.0039999999999" as="targetPoint" />
          </mxGeometry>
        </mxCell>
        <mxCell id="kNnIyhSNZJ5QO92yVe2D-73" value="" style="endArrow=block;endSize=16;endFill=0;html=1;rounded=0;entryX=1;entryY=0.75;entryDx=0;entryDy=0;exitX=0.554;exitY=0;exitDx=0;exitDy=0;exitPerimeter=0;" parent="1" source="kNnIyhSNZJ5QO92yVe2D-59" target="kNnIyhSNZJ5QO92yVe2D-76" edge="1">
          <mxGeometry width="160" relative="1" as="geometry">
            <mxPoint x="1129.41" y="906" as="sourcePoint" />
            <mxPoint x="1000" y="797" as="targetPoint" />
          </mxGeometry>
        </mxCell>
        <mxCell id="kNnIyhSNZJ5QO92yVe2D-76" value="&lt;p style=&quot;margin:0px;margin-top:4px;text-align:center;&quot;&gt;&lt;i&gt;&amp;lt;&amp;lt;abstract&amp;gt;&amp;gt;&lt;/i&gt;&lt;br&gt;&lt;b&gt;Nurse&lt;/b&gt;&lt;/p&gt;&lt;hr size=&quot;1&quot; style=&quot;border-style:solid;&quot;&gt;&lt;p style=&quot;margin:0px;margin-left:4px;&quot;&gt;&amp;nbsp;&lt;/p&gt;&lt;hr size=&quot;1&quot; style=&quot;border-style:solid;&quot;&gt;&lt;p style=&quot;margin:0px;margin-left:4px;&quot;&gt;+ Nurse()&lt;/p&gt;&lt;p style=&quot;margin:0px;margin-left:4px;&quot;&gt;&lt;br&gt;&lt;/p&gt;&lt;p style=&quot;margin:0px;margin-left:4px;&quot;&gt;+ AddPatientRecord(): PatientRecords&lt;br&gt;&lt;/p&gt;&lt;p style=&quot;margin:0px;margin-left:4px;&quot;&gt;+ UpdatePatientRecord() &amp;lt;&amp;lt;abstract&amp;gt;&amp;gt;&lt;/p&gt;&lt;p style=&quot;margin:0px;margin-left:4px;&quot;&gt;&lt;br&gt;&lt;/p&gt;" style="verticalAlign=top;align=left;overflow=fill;html=1;whiteSpace=wrap;" parent="1" vertex="1">
          <mxGeometry x="870" y="650" width="230" height="205" as="geometry" />
        </mxCell>
        <mxCell id="kNnIyhSNZJ5QO92yVe2D-77" value="&lt;p style=&quot;margin:0px;margin-top:4px;text-align:center;&quot;&gt;&lt;b&gt;Manage&lt;/b&gt;&lt;/p&gt;&lt;hr size=&quot;1&quot; style=&quot;border-style:solid;&quot;&gt;&lt;p style=&quot;margin:0px;margin-left:4px;&quot;&gt;+ _patient_record: PatientRecord&lt;/p&gt;&lt;hr size=&quot;1&quot; style=&quot;border-style:solid;&quot;&gt;&lt;p style=&quot;margin:0px;margin-left:4px;&quot;&gt;+ Mange()&lt;/p&gt;&lt;p style=&quot;margin:0px;margin-left:4px;&quot;&gt;&lt;br&gt;&lt;/p&gt;&lt;p style=&quot;margin:0px;margin-left:4px;&quot;&gt;+&amp;nbsp;&lt;span style=&quot;background-color: initial;&quot;&gt;AddPatient&lt;/span&gt;&lt;span style=&quot;background-color: initial;&quot;&gt;Record&lt;/span&gt;&lt;span style=&quot;background-color: initial;&quot;&gt;() &amp;lt;&amp;lt;&lt;/span&gt;abstract&lt;span style=&quot;background-color: initial;&quot;&gt;&amp;gt;&amp;gt;&lt;/span&gt;&lt;/p&gt;&lt;div&gt;&amp;nbsp;+ RemovePatient&lt;span style=&quot;background-color: initial;&quot;&gt;Record&lt;/span&gt;&lt;span style=&quot;background-color: initial;&quot;&gt;()&amp;nbsp;&lt;/span&gt;&lt;span style=&quot;background-color: initial;&quot;&gt;&amp;lt;&amp;lt;&lt;/span&gt;abstract&lt;span style=&quot;background-color: initial;&quot;&gt;&amp;gt;&amp;gt;&lt;/span&gt;&lt;/div&gt;&lt;div&gt;&lt;div&gt;&lt;br&gt;&lt;/div&gt;&lt;/div&gt;&lt;div&gt;&amp;nbsp;+ AddDoctor()&amp;nbsp;&lt;span style=&quot;background-color: initial;&quot;&gt;&amp;lt;&amp;lt;property&amp;gt;&amp;gt;&lt;/span&gt;&lt;/div&gt;&lt;div&gt;&amp;nbsp;+ RemoveDoctor()&amp;nbsp;&lt;span style=&quot;background-color: initial;&quot;&gt;&amp;lt;&amp;lt;property&amp;gt;&amp;gt;&lt;/span&gt;&lt;/div&gt;&lt;div&gt;&amp;nbsp;+ AddNurse()&amp;nbsp;&lt;span style=&quot;background-color: initial;&quot;&gt;&amp;lt;&amp;lt;property&amp;gt;&amp;gt;&lt;/span&gt;&lt;/div&gt;&lt;div&gt;&amp;nbsp;+ RemoveNurse()&amp;nbsp;&lt;span style=&quot;background-color: initial;&quot;&gt;&amp;lt;&amp;lt;property&amp;gt;&amp;gt;&lt;/span&gt;&lt;/div&gt;&lt;div&gt;&amp;nbsp;+ SearchPatient()&amp;nbsp;&lt;span style=&quot;background-color: initial;&quot;&gt;&amp;lt;&amp;lt;property&amp;gt;&amp;gt;&lt;/span&gt;&lt;/div&gt;&lt;div&gt;&amp;nbsp;+ EnableBooking()&amp;nbsp;&lt;span style=&quot;background-color: initial;&quot;&gt;&amp;lt;&amp;lt;property&amp;gt;&amp;gt;&lt;/span&gt;&lt;/div&gt;" style="verticalAlign=top;align=left;overflow=fill;html=1;whiteSpace=wrap;" parent="1" vertex="1">
          <mxGeometry x="360" y="270" width="225" height="260" as="geometry" />
        </mxCell>
        <mxCell id="kNnIyhSNZJ5QO92yVe2D-79" value="&lt;p style=&quot;margin:0px;margin-top:4px;text-align:center;&quot;&gt;&lt;i&gt;&amp;lt;&amp;lt;abstract&amp;gt;&amp;gt;&lt;/i&gt;&lt;br&gt;&lt;b&gt;Person&lt;/b&gt;&lt;/p&gt;&lt;hr size=&quot;1&quot; style=&quot;border-style:solid;&quot;&gt;&lt;p style=&quot;margin:0px;margin-left:4px;&quot;&gt;+ _name: string&lt;/p&gt;&lt;p style=&quot;margin:0px;margin-left:4px;&quot;&gt;+ _contact: string&lt;/p&gt;&lt;p style=&quot;margin:0px;margin-left:4px;&quot;&gt;+ _dob: DateTime&lt;/p&gt;&lt;hr size=&quot;1&quot; style=&quot;border-style:solid;&quot;&gt;&lt;p style=&quot;margin:0px;margin-left:4px;&quot;&gt;+ Person()&lt;/p&gt;&lt;p style=&quot;margin:0px;margin-left:4px;&quot;&gt;&lt;br&gt;&lt;/p&gt;&lt;p style=&quot;margin:0px;margin-left:4px;&quot;&gt;+ Name(): string&lt;/p&gt;&lt;p style=&quot;margin:0px;margin-left:4px;&quot;&gt;+ Contact(): string&lt;/p&gt;&lt;p style=&quot;margin:0px;margin-left:4px;&quot;&gt;+ DOB(): DateTime&lt;/p&gt;" style="verticalAlign=top;align=left;overflow=fill;html=1;whiteSpace=wrap;" parent="1" vertex="1">
          <mxGeometry x="690" y="230" width="190" height="180" as="geometry" />
        </mxCell>
        <mxCell id="kNnIyhSNZJ5QO92yVe2D-80" value="&lt;p style=&quot;margin:0px;margin-top:4px;text-align:center;&quot;&gt;&lt;b&gt;Medical Staff&lt;/b&gt;&lt;/p&gt;&lt;hr size=&quot;1&quot; style=&quot;border-style:solid;&quot;&gt;&lt;p style=&quot;margin:0px;margin-left:4px;&quot;&gt;+ _working_hours: string&lt;/p&gt;&lt;p style=&quot;margin:0px;margin-left:4px;&quot;&gt;+ _experience: string&lt;/p&gt;&lt;p style=&quot;margin:0px;margin-left:4px;&quot;&gt;&lt;br&gt;&lt;/p&gt;&lt;hr size=&quot;1&quot; style=&quot;border-style:solid;&quot;&gt;&lt;p style=&quot;margin:0px;margin-left:4px;&quot;&gt;+ Staff()&lt;/p&gt;&lt;p style=&quot;margin:0px;margin-left:4px;&quot;&gt;&lt;br&gt;&lt;/p&gt;&lt;p style=&quot;margin:0px;margin-left:4px;&quot;&gt;+ WorkingHours(): string&lt;/p&gt;&lt;p style=&quot;margin:0px;margin-left:4px;&quot;&gt;+ Experience(): string&lt;/p&gt;&lt;p style=&quot;margin:0px;margin-left:4px;&quot;&gt;+ Diagnose(): &amp;lt;&amp;lt;abstract&amp;gt;&amp;gt;&lt;/p&gt;&lt;p style=&quot;margin:0px;margin-left:4px;&quot;&gt;+ ProvideFeedback(): &amp;lt;&amp;lt;abstract&amp;gt;&amp;gt;&lt;/p&gt;" style="verticalAlign=top;align=left;overflow=fill;html=1;whiteSpace=wrap;" parent="1" vertex="1">
          <mxGeometry x="990" y="260" width="200" height="180" as="geometry" />
        </mxCell>
        <mxCell id="kNnIyhSNZJ5QO92yVe2D-83" value="" style="endArrow=block;endSize=16;endFill=0;html=1;rounded=0;entryX=0.567;entryY=-0.019;entryDx=0;entryDy=0;exitX=-0.012;exitY=0.371;exitDx=0;exitDy=0;exitPerimeter=0;entryPerimeter=0;" parent="1" source="kNnIyhSNZJ5QO92yVe2D-30" target="kNnIyhSNZJ5QO92yVe2D-80" edge="1">
          <mxGeometry width="160" relative="1" as="geometry">
            <mxPoint x="1010" y="250" as="sourcePoint" />
            <mxPoint x="1170" y="250" as="targetPoint" />
          </mxGeometry>
        </mxCell>
        <mxCell id="kNnIyhSNZJ5QO92yVe2D-84" value="" style="endArrow=block;endSize=16;endFill=0;html=1;rounded=0;entryX=0.993;entryY=0.213;entryDx=0;entryDy=0;exitX=-0.009;exitY=0.453;exitDx=0;exitDy=0;exitPerimeter=0;entryPerimeter=0;" parent="1" source="kNnIyhSNZJ5QO92yVe2D-54" target="kNnIyhSNZJ5QO92yVe2D-80" edge="1">
          <mxGeometry width="160" relative="1" as="geometry">
            <mxPoint x="1249" y="286" as="sourcePoint" />
            <mxPoint x="1171" y="404" as="targetPoint" />
          </mxGeometry>
        </mxCell>
        <mxCell id="kNnIyhSNZJ5QO92yVe2D-85" value="" style="endArrow=block;endSize=16;endFill=0;html=1;rounded=0;entryX=1;entryY=0.5;entryDx=0;entryDy=0;exitX=0.001;exitY=0.109;exitDx=0;exitDy=0;exitPerimeter=0;" parent="1" source="kNnIyhSNZJ5QO92yVe2D-46" target="kNnIyhSNZJ5QO92yVe2D-80" edge="1">
          <mxGeometry width="160" relative="1" as="geometry">
            <mxPoint x="1380" y="348.5" as="sourcePoint" />
            <mxPoint x="1110" y="421.5" as="targetPoint" />
          </mxGeometry>
        </mxCell>
        <mxCell id="kNnIyhSNZJ5QO92yVe2D-86" value="" style="endArrow=block;endSize=16;endFill=0;html=1;rounded=0;entryX=1;entryY=1;entryDx=0;entryDy=0;exitX=0;exitY=0.5;exitDx=0;exitDy=0;" parent="1" source="kNnIyhSNZJ5QO92yVe2D-26" target="kNnIyhSNZJ5QO92yVe2D-80" edge="1">
          <mxGeometry width="160" relative="1" as="geometry">
            <mxPoint x="1440" y="520" as="sourcePoint" />
            <mxPoint x="1091" y="450" as="targetPoint" />
          </mxGeometry>
        </mxCell>
        <mxCell id="kNnIyhSNZJ5QO92yVe2D-87" value="" style="endArrow=block;endSize=16;endFill=0;html=1;rounded=0;entryX=0.5;entryY=1;entryDx=0;entryDy=0;exitX=0.5;exitY=0;exitDx=0;exitDy=0;" parent="1" source="kNnIyhSNZJ5QO92yVe2D-19" target="kNnIyhSNZJ5QO92yVe2D-79" edge="1">
          <mxGeometry width="160" relative="1" as="geometry">
            <mxPoint x="819" y="239" as="sourcePoint" />
            <mxPoint x="740" y="241" as="targetPoint" />
          </mxGeometry>
        </mxCell>
        <mxCell id="kNnIyhSNZJ5QO92yVe2D-88" value="" style="endArrow=block;endSize=16;endFill=0;html=1;rounded=0;entryX=1.01;entryY=0.273;entryDx=0;entryDy=0;exitX=0.003;exitY=0.428;exitDx=0;exitDy=0;exitPerimeter=0;entryPerimeter=0;" parent="1" source="kNnIyhSNZJ5QO92yVe2D-77" target="kNnIyhSNZJ5QO92yVe2D-18" edge="1">
          <mxGeometry width="160" relative="1" as="geometry">
            <mxPoint x="425" y="140" as="sourcePoint" />
            <mxPoint x="427" y="239" as="targetPoint" />
          </mxGeometry>
        </mxCell>
        <mxCell id="kNnIyhSNZJ5QO92yVe2D-91" value="" style="endArrow=block;endSize=16;endFill=0;html=1;rounded=0;entryX=0.5;entryY=1;entryDx=0;entryDy=0;exitX=0.5;exitY=0;exitDx=0;exitDy=0;" parent="1" source="kNnIyhSNZJ5QO92yVe2D-76" target="kNnIyhSNZJ5QO92yVe2D-80" edge="1">
          <mxGeometry width="160" relative="1" as="geometry">
            <mxPoint x="680" y="520" as="sourcePoint" />
            <mxPoint x="840" y="520" as="targetPoint" />
          </mxGeometry>
        </mxCell>
        <mxCell id="lLi3RAJaF4VqPXo-S-EF-1" value="" style="endArrow=block;endSize=16;endFill=0;html=1;rounded=0;fontSize=12;curved=1;entryX=0.5;entryY=0;entryDx=0;entryDy=0;exitX=0;exitY=0.5;exitDx=0;exitDy=0;" parent="1" source="kNnIyhSNZJ5QO92yVe2D-50" target="kNnIyhSNZJ5QO92yVe2D-79" edge="1">
          <mxGeometry width="160" relative="1" as="geometry">
            <mxPoint x="630" y="150" as="sourcePoint" />
            <mxPoint x="790" y="150" as="targetPoint" />
          </mxGeometry>
        </mxCell>
        <mxCell id="lLi3RAJaF4VqPXo-S-EF-7" value="Use" style="endArrow=open;endSize=12;dashed=1;html=1;rounded=0;fontSize=12;curved=1;exitX=0.5;exitY=1.006;exitDx=0;exitDy=0;exitPerimeter=0;entryX=1;entryY=0.5;entryDx=0;entryDy=0;" parent="1" source="kNnIyhSNZJ5QO92yVe2D-50" target="kNnIyhSNZJ5QO92yVe2D-20" edge="1">
          <mxGeometry width="160" relative="1" as="geometry">
            <mxPoint x="710" y="340" as="sourcePoint" />
            <mxPoint x="900" y="510" as="targetPoint" />
          </mxGeometry>
        </mxCell>
        <mxCell id="lLi3RAJaF4VqPXo-S-EF-9" value="" style="endArrow=diamondThin;endFill=0;endSize=24;html=1;rounded=0;fontSize=12;entryX=1;entryY=0.75;entryDx=0;entryDy=0;exitX=0;exitY=0.5;exitDx=0;exitDy=0;edgeStyle=orthogonalEdgeStyle;" parent="1" source="kNnIyhSNZJ5QO92yVe2D-76" target="kNnIyhSNZJ5QO92yVe2D-77" edge="1">
          <mxGeometry width="160" relative="1" as="geometry">
            <mxPoint x="710" y="690" as="sourcePoint" />
            <mxPoint x="870" y="690" as="targetPoint" />
            <Array as="points">
              <mxPoint x="650" y="753" />
              <mxPoint x="650" y="465" />
            </Array>
          </mxGeometry>
        </mxCell>
        <mxCell id="lLi3RAJaF4VqPXo-S-EF-13" value="" style="endArrow=diamondThin;endFill=0;endSize=24;html=1;rounded=0;fontSize=12;entryX=1;entryY=0.75;entryDx=0;entryDy=0;exitX=0.002;exitY=0.599;exitDx=0;exitDy=0;edgeStyle=orthogonalEdgeStyle;exitPerimeter=0;" parent="1" source="kNnIyhSNZJ5QO92yVe2D-79" edge="1">
          <mxGeometry width="160" relative="1" as="geometry">
            <mxPoint x="915" y="710.95" as="sourcePoint" />
            <mxPoint x="585" y="370.95" as="targetPoint" />
            <Array as="points">
              <mxPoint x="650" y="371" />
              <mxPoint x="620" y="371" />
              <mxPoint x="620" y="370" />
              <mxPoint x="585" y="370" />
            </Array>
          </mxGeometry>
        </mxCell>
        <mxCell id="lLi3RAJaF4VqPXo-S-EF-16" value="Use" style="endArrow=open;endSize=12;dashed=1;html=1;rounded=0;fontSize=12;exitX=0.5;exitY=0;exitDx=0;exitDy=0;entryX=0;entryY=0.5;entryDx=0;entryDy=0;edgeStyle=orthogonalEdgeStyle;" parent="1" source="kNnIyhSNZJ5QO92yVe2D-77" target="kNnIyhSNZJ5QO92yVe2D-58" edge="1">
          <mxGeometry width="160" relative="1" as="geometry">
            <mxPoint x="380" y="200" as="sourcePoint" />
            <mxPoint x="540" y="200" as="targetPoint" />
          </mxGeometry>
        </mxCell>
        <mxCell id="lLi3RAJaF4VqPXo-S-EF-18" value="" style="endArrow=diamondThin;endFill=0;endSize=24;html=1;rounded=0;fontSize=12;curved=1;entryX=0.014;entryY=0.257;entryDx=0;entryDy=0;entryPerimeter=0;exitX=1.015;exitY=0.007;exitDx=0;exitDy=0;exitPerimeter=0;" parent="1" source="kNnIyhSNZJ5QO92yVe2D-58" target="kNnIyhSNZJ5QO92yVe2D-50" edge="1">
          <mxGeometry width="160" relative="1" as="geometry">
            <mxPoint x="750" y="109" as="sourcePoint" />
            <mxPoint x="900" y="130" as="targetPoint" />
          </mxGeometry>
        </mxCell>
        <mxCell id="J8n-yBxIxczsUlnExXDL-33" value="Pediatric" style="swimlane;fontStyle=1;align=center;verticalAlign=top;childLayout=stackLayout;horizontal=1;startSize=26;horizontalStack=0;resizeParent=1;resizeParentMax=0;resizeLast=0;collapsible=1;marginBottom=0;whiteSpace=wrap;html=1;" vertex="1" parent="1">
          <mxGeometry x="1350" y="150" width="210" height="60" as="geometry" />
        </mxCell>
        <mxCell id="J8n-yBxIxczsUlnExXDL-34" value="&amp;nbsp;" style="text;strokeColor=none;fillColor=none;align=left;verticalAlign=top;spacingLeft=4;spacingRight=4;overflow=hidden;rotatable=0;points=[[0,0.5],[1,0.5]];portConstraint=eastwest;whiteSpace=wrap;html=1;" vertex="1" parent="J8n-yBxIxczsUlnExXDL-33">
          <mxGeometry y="26" width="210" height="26" as="geometry" />
        </mxCell>
        <mxCell id="J8n-yBxIxczsUlnExXDL-35" value="" style="line;strokeWidth=1;fillColor=none;align=left;verticalAlign=middle;spacingTop=-1;spacingLeft=3;spacingRight=3;rotatable=0;labelPosition=right;points=[];portConstraint=eastwest;strokeColor=inherit;" vertex="1" parent="J8n-yBxIxczsUlnExXDL-33">
          <mxGeometry y="52" width="210" height="8" as="geometry" />
        </mxCell>
        <mxCell id="J8n-yBxIxczsUlnExXDL-69" value="" style="html=1;points=[[0,0,0,0,5],[0,1,0,0,-5],[1,0,0,0,5],[1,1,0,0,-5]];perimeter=orthogonalPerimeter;outlineConnect=0;targetShapes=umlLifeline;portConstraint=eastwest;newEdgeStyle={&quot;curved&quot;:0,&quot;rounded&quot;:0};" vertex="1" parent="1">
          <mxGeometry x="80" y="1360" width="10" height="230" as="geometry" />
        </mxCell>
        <mxCell id="J8n-yBxIxczsUlnExXDL-70" value="&lt;font style=&quot;font-size: 12px;&quot;&gt;AddPatientRecord&lt;/font&gt;" style="html=1;verticalAlign=bottom;endArrow=block;curved=0;rounded=0;exitX=1;exitY=0;exitDx=0;exitDy=5;exitPerimeter=0;entryX=0;entryY=0;entryDx=0;entryDy=5;entryPerimeter=0;" edge="1" parent="1">
          <mxGeometry relative="1" as="geometry">
            <mxPoint x="90" y="1380" as="sourcePoint" />
            <mxPoint x="250" y="1380" as="targetPoint" />
            <Array as="points">
              <mxPoint x="170" y="1380" />
            </Array>
          </mxGeometry>
        </mxCell>
        <mxCell id="J8n-yBxIxczsUlnExXDL-71" value="" style="html=1;verticalAlign=bottom;endArrow=open;dashed=1;endSize=8;curved=0;rounded=0;" edge="1" source="J8n-yBxIxczsUlnExXDL-73" parent="1">
          <mxGeometry relative="1" as="geometry">
            <mxPoint x="90" y="1500" as="targetPoint" />
            <mxPoint x="420" y="1500" as="sourcePoint" />
          </mxGeometry>
        </mxCell>
        <mxCell id="J8n-yBxIxczsUlnExXDL-72" value="Receptionist" style="html=1;whiteSpace=wrap;" vertex="1" parent="1">
          <mxGeometry x="30" y="1300" width="110" height="30" as="geometry" />
        </mxCell>
        <mxCell id="J8n-yBxIxczsUlnExXDL-73" value="" style="html=1;points=[[0,0,0,0,5],[0,1,0,0,-5],[1,0,0,0,5],[1,1,0,0,-5]];perimeter=orthogonalPerimeter;outlineConnect=0;targetShapes=umlLifeline;portConstraint=eastwest;newEdgeStyle={&quot;curved&quot;:0,&quot;rounded&quot;:0};" vertex="1" parent="1">
          <mxGeometry x="250" y="1360" width="10" height="230" as="geometry" />
        </mxCell>
        <mxCell id="J8n-yBxIxczsUlnExXDL-76" value="Manage" style="html=1;whiteSpace=wrap;" vertex="1" parent="1">
          <mxGeometry x="200" y="1300" width="110" height="30" as="geometry" />
        </mxCell>
        <mxCell id="J8n-yBxIxczsUlnExXDL-82" value="EnabelBooking" style="text;html=1;align=center;verticalAlign=middle;resizable=0;points=[];autosize=1;strokeColor=none;fillColor=none;" vertex="1" parent="1">
          <mxGeometry x="130" y="1470" width="100" height="30" as="geometry" />
        </mxCell>
        <mxCell id="J8n-yBxIxczsUlnExXDL-83" value="" style="html=1;points=[[0,0,0,0,5],[0,1,0,0,-5],[1,0,0,0,5],[1,1,0,0,-5]];perimeter=orthogonalPerimeter;outlineConnect=0;targetShapes=umlLifeline;portConstraint=eastwest;newEdgeStyle={&quot;curved&quot;:0,&quot;rounded&quot;:0};" vertex="1" parent="1">
          <mxGeometry x="80" y="1710" width="10" height="230" as="geometry" />
        </mxCell>
        <mxCell id="J8n-yBxIxczsUlnExXDL-84" value="Medical Staff" style="html=1;whiteSpace=wrap;" vertex="1" parent="1">
          <mxGeometry x="30" y="1650" width="110" height="30" as="geometry" />
        </mxCell>
        <mxCell id="J8n-yBxIxczsUlnExXDL-85" value="" style="html=1;points=[[0,0,0,0,5],[0,1,0,0,-5],[1,0,0,0,5],[1,1,0,0,-5]];perimeter=orthogonalPerimeter;outlineConnect=0;targetShapes=umlLifeline;portConstraint=eastwest;newEdgeStyle={&quot;curved&quot;:0,&quot;rounded&quot;:0};" vertex="1" parent="1">
          <mxGeometry x="272.5" y="1710" width="10" height="230" as="geometry" />
        </mxCell>
        <mxCell id="J8n-yBxIxczsUlnExXDL-86" value="Patient" style="html=1;whiteSpace=wrap;" vertex="1" parent="1">
          <mxGeometry x="222.5" y="1650" width="110" height="30" as="geometry" />
        </mxCell>
        <mxCell id="J8n-yBxIxczsUlnExXDL-87" value="&lt;font style=&quot;font-size: 12px;&quot;&gt;Diagnose&lt;/font&gt;" style="html=1;verticalAlign=bottom;endArrow=block;curved=0;rounded=0;exitX=1;exitY=0;exitDx=0;exitDy=5;exitPerimeter=0;entryX=0;entryY=0.087;entryDx=0;entryDy=0;entryPerimeter=0;" edge="1" parent="1" target="J8n-yBxIxczsUlnExXDL-85">
          <mxGeometry relative="1" as="geometry">
            <mxPoint x="90" y="1730" as="sourcePoint" />
            <mxPoint x="250" y="1730" as="targetPoint" />
            <Array as="points" />
          </mxGeometry>
        </mxCell>
        <mxCell id="J8n-yBxIxczsUlnExXDL-88" value="" style="endArrow=diamondThin;endFill=0;endSize=24;html=1;rounded=0;entryX=0.062;entryY=1.011;entryDx=0;entryDy=0;exitX=0.998;exitY=0.167;exitDx=0;exitDy=0;exitPerimeter=0;edgeStyle=elbowEdgeStyle;elbow=vertical;entryPerimeter=0;" edge="1" parent="1" source="kNnIyhSNZJ5QO92yVe2D-22">
          <mxGeometry width="160" relative="1" as="geometry">
            <mxPoint x="780" y="440" as="sourcePoint" />
            <mxPoint x="1002.4000000000001" y="441.9799999999999" as="targetPoint" />
            <Array as="points">
              <mxPoint x="930" y="550" />
            </Array>
          </mxGeometry>
        </mxCell>
        <mxCell id="J8n-yBxIxczsUlnExXDL-90" value="*" style="text;html=1;align=center;verticalAlign=middle;resizable=0;points=[];autosize=1;strokeColor=none;fillColor=none;" vertex="1" parent="1">
          <mxGeometry x="840" y="730" width="30" height="30" as="geometry" />
        </mxCell>
        <mxCell id="J8n-yBxIxczsUlnExXDL-93" value="*" style="text;html=1;align=center;verticalAlign=middle;resizable=0;points=[];autosize=1;strokeColor=none;fillColor=none;" vertex="1" parent="1">
          <mxGeometry x="650" y="320" width="30" height="30" as="geometry" />
        </mxCell>
        <mxCell id="J8n-yBxIxczsUlnExXDL-94" value="*" style="text;html=1;align=center;verticalAlign=middle;resizable=0;points=[];autosize=1;strokeColor=none;fillColor=none;" vertex="1" parent="1">
          <mxGeometry x="860" y="530" width="30" height="30" as="geometry" />
        </mxCell>
        <mxCell id="J8n-yBxIxczsUlnExXDL-95" value="*" style="text;html=1;align=center;verticalAlign=middle;resizable=0;points=[];autosize=1;strokeColor=none;fillColor=none;" vertex="1" parent="1">
          <mxGeometry x="690" y="75" width="30" height="30" as="geometry" />
        </mxCell>
        <mxCell id="J8n-yBxIxczsUlnExXDL-98" value="" style="html=1;verticalAlign=bottom;endArrow=block;curved=0;rounded=0;" edge="1" parent="1" source="J8n-yBxIxczsUlnExXDL-85">
          <mxGeometry relative="1" as="geometry">
            <mxPoint x="257.5" y="1780" as="sourcePoint" />
            <mxPoint x="90" y="1780" as="targetPoint" />
            <Array as="points" />
          </mxGeometry>
        </mxCell>
        <mxCell id="J8n-yBxIxczsUlnExXDL-99" value="" style="html=1;points=[[0,0,0,0,5],[0,1,0,0,-5],[1,0,0,0,5],[1,1,0,0,-5]];perimeter=orthogonalPerimeter;outlineConnect=0;targetShapes=umlLifeline;portConstraint=eastwest;newEdgeStyle={&quot;curved&quot;:0,&quot;rounded&quot;:0};" vertex="1" parent="1">
          <mxGeometry x="462.5" y="1710" width="10" height="230" as="geometry" />
        </mxCell>
        <mxCell id="J8n-yBxIxczsUlnExXDL-100" value="Nurse" style="html=1;whiteSpace=wrap;" vertex="1" parent="1">
          <mxGeometry x="412.5" y="1650" width="110" height="30" as="geometry" />
        </mxCell>
        <mxCell id="J8n-yBxIxczsUlnExXDL-101" value="" style="html=1;verticalAlign=bottom;endArrow=block;curved=0;rounded=0;exitX=1;exitY=0;exitDx=0;exitDy=5;exitPerimeter=0;" edge="1" parent="1" target="J8n-yBxIxczsUlnExXDL-99">
          <mxGeometry relative="1" as="geometry">
            <mxPoint x="90" y="1834.58" as="sourcePoint" />
            <mxPoint x="272.5" y="1834.58" as="targetPoint" />
            <Array as="points" />
          </mxGeometry>
        </mxCell>
        <mxCell id="J8n-yBxIxczsUlnExXDL-102" value="ProvideFeedback" style="text;html=1;align=center;verticalAlign=middle;resizable=0;points=[];autosize=1;strokeColor=none;fillColor=none;" vertex="1" parent="1">
          <mxGeometry x="322.5" y="1810" width="120" height="30" as="geometry" />
        </mxCell>
        <mxCell id="J8n-yBxIxczsUlnExXDL-103" value="" style="html=1;points=[[0,0,0,0,5],[0,1,0,0,-5],[1,0,0,0,5],[1,1,0,0,-5]];perimeter=orthogonalPerimeter;outlineConnect=0;targetShapes=umlLifeline;portConstraint=eastwest;newEdgeStyle={&quot;curved&quot;:0,&quot;rounded&quot;:0};" vertex="1" parent="1">
          <mxGeometry x="652.5" y="1710" width="10" height="230" as="geometry" />
        </mxCell>
        <mxCell id="J8n-yBxIxczsUlnExXDL-104" value="Manage" style="html=1;whiteSpace=wrap;" vertex="1" parent="1">
          <mxGeometry x="602.5" y="1650" width="110" height="30" as="geometry" />
        </mxCell>
        <mxCell id="J8n-yBxIxczsUlnExXDL-105" value="&lt;font style=&quot;font-size: 12px;&quot;&gt;UpdatePatientRecord&lt;/font&gt;" style="html=1;verticalAlign=bottom;endArrow=block;curved=0;rounded=0;exitX=1;exitY=0;exitDx=0;exitDy=5;exitPerimeter=0;entryX=0;entryY=0.087;entryDx=0;entryDy=0;entryPerimeter=0;" edge="1" parent="1">
          <mxGeometry relative="1" as="geometry">
            <mxPoint x="472.5" y="1880" as="sourcePoint" />
            <mxPoint x="655" y="1880" as="targetPoint" />
            <Array as="points" />
          </mxGeometry>
        </mxCell>
      </root>
    </mxGraphModel>
  </diagram>
</mxfile>
